{
	"asset":{
		"generator":"Khronos glTF Blender I/O v3.5.30",
		"version":"2.0"
	},
	"scene":0,
	"scenes":[
		{
			"name":"Scene",
			"nodes":[
				0
			]
		}
	],
	"nodes":[
		{
			"mesh":0,
			"name":"\u0422\u0435\u043a\u0441\u0442",
			"rotation":[
				0.7071068286895752,
				0,
				0,
				0.7071068286895752
			]
		}
	],
	"meshes":[
		{
			"name":"\u0422\u0435\u043a\u0441\u0442.001",
			"primitives":[
				{
					"attributes":{
						"POSITION":0,
						"TEXCOORD_0":1,
						"NORMAL":2
					},
					"indices":3
				}
			]
		}
	],
	"accessors":[
		{
			"bufferView":0,
			"componentType":5126,
			"count":120,
			"max":[
				0.5223662853240967,
				0.06999999284744263,
				0.31928688287734985
			],
			"min":[
				-0.5223662853240967,
				-0.06999999284744263,
				-0.2320908010005951
			],
			"type":"VEC3"
		},
		{
			"bufferView":1,
			"componentType":5126,
			"count":120,
			"type":"VEC2"
		},
		{
			"bufferView":2,
			"componentType":5126,
			"count":120,
			"type":"VEC3"
		},
		{
			"bufferView":3,
			"componentType":5123,
			"count":204,
			"type":"SCALAR"
		}
	],
	"bufferViews":[
		{
			"buffer":0,
			"byteLength":1440,
			"byteOffset":0,
			"target":34962
		},
		{
			"buffer":0,
			"byteLength":960,
			"byteOffset":1440,
			"target":34962
		},
		{
			"buffer":0,
			"byteLength":1440,
			"byteOffset":2400,
			"target":34962
		},
		{
			"buffer":0,
			"byteLength":408,
			"byteOffset":3840,
			"target":34963
		}
	],
	"buffers":[
		{
			"byteLength":4248,
			"uri":"data:application/octet-stream;base64,"
		}
	]
}
