{
	"asset":{
		"generator":"Khronos glTF Blender I/O v3.5.30",
		"version":"2.0"
	},
	"scene":0,
	"scenes":[
		{
			"name":"Scene",
			"nodes":[
				0
			]
		}
	],
	"nodes":[
		{
			"mesh":0,
			"name":"\u0422\u0435\u043a\u0441\u0442",
			"rotation":[
				0.7071068286895752,
				0,
				0,
				0.7071068286895752
			]
		}
	],
	"meshes":[
		{
			"name":"\u0422\u0435\u043a\u0441\u0442",
			"primitives":[
				{
					"attributes":{
						"POSITION":0,
						"TEXCOORD_0":1,
						"NORMAL":2
					},
					"indices":3
				}
			]
		}
	],
	"accessors":[
		{
			"bufferView":0,
			"componentType":5126,
			"count":1302,
			"max":[
				0.5963101387023926,
				0.07999999821186066,
				0.3748159110546112
			],
			"min":[
				-0.5963101983070374,
				-0.07999999821186066,
				-0.27318692207336426
			],
			"type":"VEC3"
		},
		{
			"bufferView":1,
			"componentType":5126,
			"count":1302,
			"type":"VEC2"
		},
		{
			"bufferView":2,
			"componentType":5126,
			"count":1302,
			"type":"VEC3"
		},
		{
			"bufferView":3,
			"componentType":5123,
			"count":4284,
			"type":"SCALAR"
		}
	],
	"bufferViews":[
		{
			"buffer":0,
			"byteLength":15624,
			"byteOffset":0,
			"target":34962
		},
		{
			"buffer":0,
			"byteLength":10416,
			"byteOffset":15624,
			"target":34962
		},
		{
			"buffer":0,
			"byteLength":15624,
			"byteOffset":26040,
			"target":34962
		},
		{
			"buffer":0,
			"byteLength":8568,
			"byteOffset":41664,
			"target":34963
		}
	],
	"buffers":[
		{
			"byteLength":50232,
			"uri":"data:application/octet-stream;base64,"
		}
	]
}
