<?xml version="1.0" encoding="iso-8859-1"?>
<!-- Generator: Adobe Illustrator 19.0.0, SVG Export Plug-In . SVG Version: 6.00 Build 0)  -->
<svg version="1.1" id="Capa_1" xmlns="http://www.w3.org/2000/svg" xmlns:xlink="http://www.w3.org/1999/xlink" x="0px" y="0px"
	 viewBox="0 0 512 512" style="enable-background:new 0 0 512 512;" xml:space="preserve">
<rect x="293.333" y="393.6" style="fill:#CED6E0;" width="198.4" height="29.867"/>
<rect x="490.667" y="393.6" style="fill:#415A6B;" width="21.333" height="83.2"/>
<path style="fill:#F3705A;" d="M220.8,35.2L220.8,35.2C99.2,35.2,0,134.4,0,256l0,0c0,121.6,99.2,220.8,220.8,220.8h220.8V256
	C441.6,134.4,342.4,35.2,220.8,35.2z"/>
<path style="fill:#FFFFFF;" d="M220.8,402.133c-86.4,0-154.667-74.667-145.067-163.2c7.467-67.2,61.867-120.533,128-128
	c87.467-9.6,163.2,58.667,163.2,145.067l0,0C366.933,337.067,300.8,402.133,220.8,402.133L220.8,402.133z"/>
<g>
	<path style="fill:#415A6B;" d="M164.267,227.2c-5.333,0-9.6,2.133-12.8,5.333c-3.2,3.2-4.267,8.533-5.333,14.933
		c5.333-3.2,11.733-5.333,17.067-5.333c8.533,0,14.933,3.2,20.267,8.533C188.8,256,192,263.467,192,272s-3.2,16-8.533,21.333
		c-6.4,5.333-13.867,8.533-22.4,8.533c-6.4,0-11.733-1.067-16-3.2c-4.267-2.133-8.533-5.333-10.667-9.6
		c-5.333-8.533-7.467-19.2-7.467-30.933c0-8.533,1.067-14.933,3.2-21.333c2.133-6.4,4.267-10.667,8.533-13.867
		c6.4-7.467,14.933-10.667,24.533-10.667c4.267,0,8.533,1.067,11.733,2.133c4.267,1.067,6.4,2.133,8.533,3.2
		c2.133,1.067,4.267,3.2,6.4,4.267l-9.6,12.8c0,0-1.067-1.067-2.133-2.133c-1.067-1.067-3.2-2.133-5.333-3.2
		C169.6,228.267,167.467,227.2,164.267,227.2z M162.133,259.2c-4.267,0-7.467,1.067-9.6,3.2s-4.267,5.333-4.267,8.533
		c0,3.2,1.067,6.4,4.267,9.6c2.133,2.133,5.333,4.267,9.6,4.267s6.4-1.067,9.6-3.2c2.133-2.133,4.267-5.333,4.267-9.6
		s-1.067-6.4-3.2-9.6C168.533,260.267,165.333,259.2,162.133,259.2z"/>
	<path style="fill:#415A6B;" d="M269.867,263.467v36.267h-19.2V262.4c0-5.333-1.067-9.6-2.133-11.733
		c-2.133-2.133-4.267-4.267-7.467-4.267c-3.2,0-6.4,1.067-9.6,4.267s-4.267,6.4-4.267,11.733v36.267H208v-67.2h19.2v7.467
		c5.333-6.4,10.667-8.533,18.133-8.533c4.267,0,8.533,1.067,11.733,4.267c3.2,2.133,6.4,5.333,7.467,9.6
		c2.133-4.267,6.4-7.467,10.667-9.6c4.267-2.133,8.533-3.2,12.8-3.2c7.467,0,13.867,2.133,19.2,7.467
		c5.333,4.267,7.467,11.733,7.467,20.267v41.6h-19.2v-37.333c0-10.667-4.267-16-11.733-16c-4.267,0-7.467,1.067-9.6,4.267
		C272,254.933,269.867,259.2,269.867,263.467z"/>
</g>
<g>
</g>
<g>
</g>
<g>
</g>
<g>
</g>
<g>
</g>
<g>
</g>
<g>
</g>
<g>
</g>
<g>
</g>
<g>
</g>
<g>
</g>
<g>
</g>
<g>
</g>
<g>
</g>
<g>
</g>
</svg>
