<?xml version="1.0" encoding="iso-8859-1"?>
<!-- Generator: Adobe Illustrator 19.0.0, SVG Export Plug-In . SVG Version: 6.00 Build 0)  -->
<svg version="1.1" id="Capa_1" xmlns="http://www.w3.org/2000/svg" xmlns:xlink="http://www.w3.org/1999/xlink" x="0px" y="0px"
	 viewBox="0 0 512 512" style="enable-background:new 0 0 512 512;" xml:space="preserve">
<g>
	<path style="fill:#75E0F1;" d="M280.047,183.859c0-61.977,50.242-120.235,112.219-120.235s112.219,58.258,112.219,120.235
		s-50.242,144.282-112.219,144.282S280.047,245.836,280.047,183.859z"/>
	<polygon style="fill:#75E0F1;" points="392.266,328.141 368.219,368.219 416.313,368.219 	"/>
</g>
<path style="fill:#53D9ED;" d="M392.266,296.078c0-35.94-14.263-72.223-39.131-99.545c-19.483-21.405-43.503-35.667-69.461-41.605
	c-2.365,9.406-3.627,19.121-3.627,28.932c0,60.844,48.424,141.272,108.834,144.192C391.097,317.188,392.266,306.423,392.266,296.078
	z"/>
<path style="fill:#FDC572;" d="M7.515,127.75c0-61.977,50.242-120.235,112.219-120.235S231.953,65.772,231.953,127.75
	s-50.242,144.282-112.219,144.282S7.515,189.727,7.515,127.75z"/>
<path style="fill:#FCB74F;" d="M143.781,256c-61.977,0-112.219-82.305-112.219-144.282c0-36.006,16.961-70.753,43.326-93.556
	C35.234,37.747,7.515,81.719,7.515,127.75c0,61.977,50.242,144.282,112.219,144.282c20.689,0,40.067-9.18,56.709-23.705
	C166.106,253.225,155.142,256,143.781,256z"/>
<polygon style="fill:#FDC572;" points="119.734,272.031 95.687,312.11 143.781,312.11 "/>
<path style="fill:#FCB74F;" d="M229.092,154.747c-26.252,5.831-50.553,20.169-70.227,41.786
	c-19.3,21.204-32.207,47.805-37.021,75.454C174.191,270.409,217.778,210.45,229.092,154.747z"/>
<path style="fill:#F1839B;" d="M143.781,296.078c0-61.977,50.242-120.235,112.219-120.235s112.219,58.258,112.219,120.235
	S317.977,440.36,256,440.36S143.781,358.055,143.781,296.078z"/>
<path style="fill:#EE6482;" d="M280.047,424.329c-61.977,0-112.219-82.305-112.219-144.282c0-36.006,16.961-70.753,43.326-93.556
	c-39.653,19.584-67.373,63.556-67.373,109.587c0,61.977,50.242,144.282,112.219,144.282c20.689,0,40.067-9.18,56.709-23.705
	C302.373,421.553,291.408,424.329,280.047,424.329z"/>
<polygon style="fill:#F1839B;" points="256,440.36 231.953,480.438 280.047,480.438 "/>
<path d="M477.175,95.442c-23.086-25.365-53.241-39.333-84.909-39.333c-30.223,0-59.368,12.895-82.068,36.309
	c-20.314,20.954-33.56,48.864-36.851,77.325c-5.707-0.936-11.501-1.415-17.347-1.415c-7.826,0-15.598,0.882-23.215,2.588
	c4.385-14.836,6.683-29.563,6.683-43.167c0-31.874-12.693-64.101-34.825-88.417C181.557,13.968,151.402,0,119.734,0
	S57.911,13.968,34.825,39.333C12.693,63.648,0,95.875,0,127.75c0,32.534,12.814,69.827,34.276,99.761
	c20.778,28.979,46.247,46.701,72.806,51.001l-17.84,29.732c-2.952,4.921,0.717,11.381,6.445,11.381h11.883
	c-12.332,28.559-4.684,47.825,1.614,63.647c5.261,13.217,9.416,23.656,3.573,38.266c-1.441,3.602,0.184,7.837,3.673,9.541
	c3.878,1.894,8.68,0.044,10.281-3.959c8.072-20.178,2.156-35.037-3.563-49.406c-6.503-16.334-12.644-31.811,1.052-58.089h19.58
	c5.726,0,9.396-6.461,6.444-11.381l-17.85-29.75c1.769-0.289,3.537-0.621,5.301-1.03c-0.131,0.871-0.255,1.742-0.369,2.615
	c-0.535,4.116,2.369,7.885,6.484,8.42c4.123,0.533,7.885-2.369,8.42-6.484c7.185-55.321,52.775-98.656,103.789-98.656
	c55.777,0,104.704,52.673,104.704,112.72c0,13.964-2.768,29.546-8.005,45.06c-1.328,3.932,0.785,8.196,4.717,9.523
	c0.797,0.27,1.607,0.397,2.404,0.397c3.135,0,6.061-1.978,7.119-5.114c1.492-4.421,2.797-8.854,3.92-13.269
	c2.91,0.808,5.832,1.457,8.762,1.936l-17.845,29.742c-2.954,4.921,0.715,11.381,6.443,11.381h12.11
	c-7.011,19.091-1.902,35.266,2.699,49.811c4.519,14.284,8.786,27.775,2.261,44.086c-1.441,3.602,0.184,7.837,3.673,9.541
	c3.878,1.894,8.68,0.044,10.281-3.959c8.521-21.303,2.992-38.781-1.887-54.202c-4.838-15.295-9.056-28.647-0.658-45.278h19.614
	c5.726,0,9.396-6.461,6.444-11.381l-17.84-29.732c26.56-4.299,52.029-22.022,72.806-51.001C499.186,253.686,512,216.393,512,183.859
	C512,151.985,499.307,119.758,477.175,95.442z M108.96,304.595l10.774-17.958l10.774,17.958H108.96z M176.513,202.049
	c-16.691,16.278-28.818,36.654-35.184,58.725c-7.16,2.474-14.416,3.743-21.595,3.743c-55.406,0-104.704-76.481-104.704-136.767
	c0-60.047,48.928-112.72,104.704-112.72s104.704,52.673,104.704,112.72c0,15.139-3.216,31.958-9.292,48.715
	C201.162,182.18,188.043,190.804,176.513,202.049z M381.492,360.704l10.774-17.958l10.774,17.958H381.492z M392.266,320.626
	c-6.094,0-12.252-0.914-18.351-2.7c1.199-7.506,1.819-14.846,1.819-21.848c0-21.181-5.611-42.515-15.867-61.582
	c0.587-0.33,1.142-0.737,1.642-1.236l76.149-76.149c2.935-2.935,2.935-7.693,0-10.627c-2.935-2.935-7.693-2.935-10.627,0
	l-75.08,75.08c-3.362-4.858-7.046-9.511-11.043-13.901c-15.1-16.59-33.226-28.303-52.82-34.422
	c5.453-55.664,52.487-102.101,104.177-102.101c55.777,0,104.704,52.673,104.704,112.72
	C496.971,244.145,447.672,320.626,392.266,320.626z"/>
<path d="M345.826,375.292c-3.53-2.186-8.161-1.096-10.345,2.433c-21.693,35.029-50.663,55.121-79.481,55.121
	c-26.234,0-47.241-16.304-60.244-29.982c-17.048-17.932-31.105-42.874-38.565-68.428c-1.162-3.984-5.333-6.269-9.319-5.107
	c-3.984,1.163-6.27,5.335-5.107,9.319c14.576,49.928,52.961,100.417,100.584,108.192l-17.839,29.732
	c-2.954,4.92,0.715,11.38,6.443,11.38h16.532v16.532c0,4.15,3.365,7.515,7.515,7.515c4.15,0,7.515-3.365,7.515-7.515v-16.532h16.532
	c5.726,0,9.396-6.461,6.444-11.381l-17.84-29.733c29.681-4.848,58.15-26.55,79.608-61.202
	C350.443,382.108,349.354,377.476,345.826,375.292z M245.226,472.924L256,454.966l10.774,17.958H245.226z"/>
<path d="M294.773,274.734l-88.172,88.172c-2.736,2.735-2.918,7.255-0.4,10.196c2.81,3.281,7.97,3.488,11.027,0.431l88.172-88.172
	c2.935-2.935,2.935-7.693,0-10.627C302.466,271.799,297.706,271.799,294.773,274.734z"/>
<path d="M268.524,352.188c0,12.983,10.563,23.546,23.546,23.546c12.983,0,23.546-10.563,23.546-23.546s-10.563-23.546-23.546-23.546
	C279.087,328.642,268.524,339.204,268.524,352.188z M300.587,352.188c0,4.696-3.82,8.517-8.517,8.517
	c-4.696,0-8.517-3.82-8.517-8.517c0-4.696,3.82-8.517,8.517-8.517C296.767,343.671,300.587,347.492,300.587,352.188z"/>
<path d="M219.93,272.532c-12.983,0-23.546,10.563-23.546,23.546s10.563,23.546,23.546,23.546s23.546-10.563,23.546-23.546
	S232.913,272.532,219.93,272.532z M219.93,304.595c-4.696,0-8.517-3.82-8.517-8.517c0-4.696,3.82-8.517,8.517-8.517
	s8.517,3.82,8.517,8.517C228.446,300.774,224.626,304.595,219.93,304.595z"/>
<path d="M424.329,200.391c-12.983,0-23.546,10.563-23.546,23.546s10.563,23.546,23.546,23.546s23.546-10.563,23.546-23.546
	S437.312,200.391,424.329,200.391z M424.329,232.454c-4.696,0-8.517-3.82-8.517-8.517s3.82-8.517,8.517-8.517
	c4.696,0,8.517,3.82,8.517,8.517S429.025,232.454,424.329,232.454z"/>
<path d="M352.188,144.282c-12.983,0-23.546,10.563-23.546,23.546s10.563,23.546,23.546,23.546s23.546-10.563,23.546-23.546
	S365.171,144.282,352.188,144.282z M352.188,176.344c-4.696,0-8.517-3.82-8.517-8.517s3.82-8.517,8.517-8.517
	c4.696,0,8.517,3.82,8.517,8.517S356.884,176.344,352.188,176.344z"/>
<path d="M173.141,90.374c-2.935-2.935-7.693-2.935-10.627,0l-88.172,88.172c-2.736,2.735-2.918,7.255-0.4,10.196
	c2.81,3.281,7.97,3.488,11.027,0.431L173.141,101C176.076,98.067,176.076,93.307,173.141,90.374z"/>
<path d="M159.812,144.282c-12.983,0-23.546,10.563-23.546,23.546s10.563,23.546,23.546,23.546s23.546-10.563,23.546-23.546
	S172.795,144.282,159.812,144.282z M159.812,176.344c-4.696,0-8.517-3.82-8.517-8.517s3.82-8.517,8.517-8.517
	s8.517,3.82,8.517,8.517S164.508,176.344,159.812,176.344z"/>
<path d="M111.217,111.718c0-12.983-10.563-23.546-23.546-23.546s-23.546,10.563-23.546,23.546s10.563,23.546,23.546,23.546
	S111.217,124.702,111.217,111.718z M79.155,111.718c0-4.696,3.82-8.517,8.517-8.517s8.517,3.82,8.517,8.517s-3.82,8.517-8.517,8.517
	S79.155,116.414,79.155,111.718z"/>
<g>
</g>
<g>
</g>
<g>
</g>
<g>
</g>
<g>
</g>
<g>
</g>
<g>
</g>
<g>
</g>
<g>
</g>
<g>
</g>
<g>
</g>
<g>
</g>
<g>
</g>
<g>
</g>
<g>
</g>
</svg>
